<svg xmlns="http://www.w3.org/2000/svg" viewBox="0 0 45 32"><path fill="#fff" d="M20.4 19.18c0-2.4-.83-4.41-2.5-6.05a10.14 10.14 0 0 0-6.17-2.87V1.44h-1.12a63.65 63.65 0 0 0-6.48 8.4 17.05 17.05 0 0 0-2.6 9.34c0 .96.26 1.98.77 3.08a11.01 11.01 0 0 0 5 5.18c1.12.58 2.33.87 3.62.87 1.3 0 2.5-.26 3.62-.77a10.7 10.7 0 0 0 3.01-2.05 9.8 9.8 0 0 0 2.1-2.93c.5-1.09.76-2.22.76-3.38Zm20.93 0c0-2.33-.84-4.34-2.5-6.05a9.34 9.34 0 0 0-6.07-2.87V1.44h-1.13a58.66 58.66 0 0 0-6.53 8.4 17.14 17.14 0 0 0-2.65 9.34c0 .96.25 1.98.76 3.08a11.01 11.01 0 0 0 5.06 5.18c1.15.58 2.38.87 3.67.87 1.22 0 2.41-.26 3.57-.77a9.8 9.8 0 0 0 5.05-4.98c.51-1.09.77-2.22.77-3.38ZM15.4 9.74a21 21 0 0 1 2.7 1.85c.85.68 1.55 1.4 2.1 2.15l.81.72c0 .14.03.22.1.26.07.03.14.12.2.25A23.37 23.37 0 0 1 25 7.13 72.1 72.1 0 0 1 30.92 0h3.26v.51l2.15 2.16v7.07a14.36 14.36 0 0 1 4.8 3.9l.91.92a9.69 9.69 0 0 1 2.1 10.98A10.98 10.98 0 0 1 34.28 32c-1.43 0-2.78-.3-4.03-.92a12.2 12.2 0 0 1-3.32-2.36l-.61-.51a9.15 9.15 0 0 1-3.06-2.77 10.5 10.5 0 0 1-9.9 6.56c-1.5 0-2.86-.3-4.08-.92a12.47 12.47 0 0 1-3.27-2.36l-.61-.51a12.7 12.7 0 0 1-3.93-4.16A9.6 9.6 0 0 1 0 19.18c0-3.76.95-7.13 2.86-10.1C4.76 6.1 7.14 3.08 10 0h3.27v.51l2.14 2.16v7.07Z"/></svg>